<svg width="28" height="28" viewBox="0 0 28 28" fill="none" xmlns="http://www.w3.org/2000/svg">
<path fill-rule="evenodd" clip-rule="evenodd" d="M14 3.5C14.1748 3.50011 14.3473 3.53948 14.5048 3.61521C14.6623 3.69093 14.8008 3.80107 14.91 3.9375L19.5767 9.77083C19.6781 9.88968 19.7547 10.0277 19.8018 10.1767C19.8489 10.3257 19.8656 10.4827 19.8509 10.6382C19.8362 10.7938 19.7904 10.9449 19.7162 11.0824C19.642 11.2199 19.5409 11.3412 19.419 11.4389C19.297 11.5366 19.1567 11.6088 19.0063 11.6513C18.8559 11.6937 18.6985 11.7055 18.5434 11.6859C18.3884 11.6664 18.2388 11.6159 18.1037 11.5374C17.9685 11.4589 17.8505 11.3541 17.7567 11.2292L15.1667 7.99167V16.3333C15.1667 16.6428 15.0437 16.9395 14.825 17.1583C14.6062 17.3771 14.3094 17.5 14 17.5C13.6906 17.5 13.3938 17.3771 13.175 17.1583C12.9562 16.9395 12.8333 16.6428 12.8333 16.3333V7.99167L10.2433 11.2303C10.1495 11.3553 10.0315 11.4601 9.89631 11.5386C9.76116 11.617 9.61162 11.6675 9.45658 11.6871C9.30153 11.7066 9.14413 11.6949 8.99373 11.6524C8.84333 11.61 8.70299 11.5378 8.58103 11.44C8.45908 11.3423 8.358 11.2211 8.28379 11.0836C8.20959 10.946 8.16378 10.795 8.14907 10.6394C8.13436 10.4838 8.15106 10.3269 8.19817 10.1779C8.24528 10.0289 8.32185 9.89084 8.42333 9.772L13.09 3.93867C13.1991 3.80203 13.3375 3.69166 13.4951 3.61573C13.6526 3.5398 13.8251 3.50025 14 3.5ZM10.5 16.3333V15.1667H5.83333C5.21449 15.1667 4.621 15.4125 4.18342 15.8501C3.74583 16.2877 3.5 16.8812 3.5 17.5V22.1667C3.5 22.7855 3.74583 23.379 4.18342 23.8166C4.621 24.2542 5.21449 24.5 5.83333 24.5H22.1667C22.7855 24.5 23.379 24.2542 23.8166 23.8166C24.2542 23.379 24.5 22.7855 24.5 22.1667V17.5C24.5 16.8812 24.2542 16.2877 23.8166 15.8501C23.379 15.4125 22.7855 15.1667 22.1667 15.1667H17.5V16.3333C17.5 17.2616 17.1313 18.1518 16.4749 18.8082C15.8185 19.4646 14.9283 19.8333 14 19.8333C13.0717 19.8333 12.1815 19.4646 11.5251 18.8082C10.8687 18.1518 10.5 17.2616 10.5 16.3333ZM19.8333 18.6667C19.5239 18.6667 19.2272 18.7896 19.0084 19.0084C18.7896 19.2272 18.6667 19.5239 18.6667 19.8333C18.6667 20.1428 18.7896 20.4395 19.0084 20.6583C19.2272 20.8771 19.5239 21 19.8333 21H19.845C20.1544 21 20.4512 20.8771 20.67 20.6583C20.8887 20.4395 21.0117 20.1428 21.0117 19.8333C21.0117 19.5239 20.8887 19.2272 20.67 19.0084C20.4512 18.7896 20.1544 18.6667 19.845 18.6667H19.8333Z" fill="#333333"/>
</svg>
