<svg width="33" height="32" viewBox="0 0 33 32" fill="none" xmlns="http://www.w3.org/2000/svg">
<path d="M5.83331 27.3333V4.66667C5.83331 3.2 7.03331 2 8.49998 2H24.5C25.9666 2 27.1666 3.2 27.1666 4.66667V27.3333C27.1666 28.8 25.9666 30 24.5 30H8.49998C7.03331 30 5.83331 28.8 5.83331 27.3333Z" fill="white"/>
<path d="M23.8333 4H9.16667C8.76667 4 8.5 4.26667 8.5 4.66667V24C8.5 24.4 8.76667 24.6667 9.16667 24.6667H23.8333C24.2333 24.6667 24.5 24.4 24.5 24V4.66667C24.5 4.26667 24.2333 4 23.8333 4Z" fill="#EEEEEE"/>
<path d="M13.8333 26.6667H19.1666V28H13.8333V26.6667Z" fill="#AC2A3A"/>
<path d="M11.1667 7.33334H21.8334V9.33334H11.1667V7.33334ZM11.1667 12H21.8334V13.3333H11.1667V12ZM11.1667 14.6667H19.1667V16H11.1667V14.6667ZM11.1667 17.3333H21.8334V18.6667H11.1667V17.3333ZM11.1667 20H19.1667V21.3333H11.1667V20Z" fill="#AC2533"/>
</svg>
