<svg width="33" height="32" viewBox="0 0 33 32" fill="none" xmlns="http://www.w3.org/2000/svg">
<path d="M12.7293 19.772L20.272 12.2293M9.89999 15.0573L8.01465 16.9427C7.51939 17.4379 7.12653 18.0259 6.8585 18.673C6.59047 19.3201 6.45251 20.0136 6.45251 20.714C6.45251 21.4144 6.59047 22.1079 6.8585 22.755C7.12653 23.4021 7.51939 23.9901 8.01465 24.4853C8.50991 24.9806 9.09787 25.3735 9.74495 25.6415C10.392 25.9095 11.0856 26.0475 11.786 26.0475C12.4864 26.0475 13.1799 25.9095 13.827 25.6415C14.4741 25.3735 15.0621 24.9806 15.5573 24.4853L17.44 22.6M15.556 9.4L17.4413 7.51467C17.9366 7.01941 18.5245 6.62655 19.1716 6.35852C19.8187 6.09048 20.5123 5.95253 21.2127 5.95253C21.9131 5.95253 22.6066 6.09048 23.2537 6.35852C23.9008 6.62655 24.4887 7.01941 24.984 7.51467C25.4792 8.00993 25.8721 8.59788 26.1401 9.24497C26.4082 9.89206 26.5461 10.5856 26.5461 11.286C26.5461 11.9864 26.4082 12.6799 26.1401 13.327C25.8721 13.9741 25.4792 14.5621 24.984 15.0573L23.0987 16.9427" stroke="white" stroke-width="2.66667" stroke-linecap="round" stroke-linejoin="round"/>
</svg>
