<svg width="29" height="29" viewBox="0 0 29 29" fill="none" xmlns="http://www.w3.org/2000/svg">
<path d="M14.6391 15.4397H10.026L12.3333 8.8567L14.6391 15.4397ZM15.3782 17.5474L15.8419 18.8739L17.4971 17.22L13.4588 5.70078C13.085 4.63429 11.5773 4.63429 11.2049 5.70078L6.06779 20.3619C5.97537 20.6257 5.99155 20.9155 6.11276 21.1674C6.23398 21.4193 6.45031 21.6128 6.71415 21.7052C6.978 21.7976 7.26775 21.7814 7.51967 21.6602C7.77159 21.539 7.96503 21.3227 8.05745 21.0588L9.28554 17.5474H15.3782ZM22.6005 14.102L15.8152 20.8888C15.4198 21.2843 15.1391 21.7796 15.003 22.322L14.4775 24.4269C14.4616 24.4916 14.4503 24.5574 14.4438 24.6236C13.9203 24.6458 13.3961 24.6043 12.8827 24.5C12.7801 24.4761 12.7422 24.3454 12.7899 24.2499C13.0428 23.7609 13.1173 22.7422 12.2223 22.3811C11.0138 21.8963 9.44291 22.5567 8.20078 23.0808C7.6865 23.2972 7.22843 23.4883 6.87434 23.567C6.33055 23.6878 5.68279 23.4757 5.1657 23.2171C4.86781 23.0682 4.48843 23.3323 4.65985 23.619C4.96758 24.1332 5.5226 24.6546 6.52305 24.7782C7.67526 24.9215 8.47759 24.5646 9.29818 24.2021C9.86023 23.952 10.4293 23.6991 11.1248 23.6007C11.2457 23.5838 11.3286 23.7272 11.2822 23.8396C11.0686 24.3412 11.0953 25.0958 11.7262 25.5876C12.4541 26.1566 14.8049 26.3056 16.3814 25.8447L18.0971 25.4161C18.6409 25.2798 19.1369 25.0002 19.5317 24.604L26.3185 17.8172C26.5656 17.5739 26.762 17.284 26.8965 16.9644C27.031 16.6448 27.1009 16.3017 27.1022 15.9549C27.1035 15.6081 27.0361 15.2645 26.9039 14.9439C26.7718 14.6233 26.5775 14.332 26.3322 14.0869C26.087 13.8417 25.7956 13.6475 25.475 13.5155C25.1543 13.3835 24.8107 13.3163 24.4639 13.3177C24.1172 13.3191 23.7741 13.3891 23.4545 13.5237C23.135 13.6583 22.8452 13.8549 22.6019 14.102" fill="#333333"/>
</svg>
