<svg width="32" height="32" viewBox="0 0 32 32" fill="none" xmlns="http://www.w3.org/2000/svg">
<path d="M12 4H10.6667C9.42671 4 8.80671 4 8.29871 4.136C7.62021 4.31767 7.00151 4.6748 6.50484 5.17147C6.00817 5.66814 5.65104 6.28684 5.46937 6.96533C5.33337 7.47333 5.33337 8.09333 5.33337 9.33333M20 4H21.3334C22.5734 4 23.1934 4 23.7014 4.136C24.3799 4.31767 24.9986 4.6748 25.4952 5.17147C25.9919 5.66814 26.349 6.28684 26.5307 6.96533C26.6667 7.47333 26.6667 8.09333 26.6667 9.33333M26.6667 20V21.3333C26.6667 23.8267 26.6667 25.072 26.1307 26C25.7796 26.608 25.2747 27.1129 24.6667 27.464C23.7387 28 22.4934 28 20 28M5.33337 20V21.3333C5.33337 23.8267 5.33337 25.072 5.86937 26C6.22043 26.608 6.72535 27.1129 7.33337 27.464C8.26137 28 9.50671 28 12 28" stroke="white" stroke-width="2.66667" stroke-linejoin="round"/>
<path d="M4 20H28M9.33333 14.6667V20H22.6667V14.6667C22.6667 13.4093 22.6667 12.7813 22.276 12.3907C21.8853 12 21.2573 12 20 12H12C10.7427 12 10.1147 12 9.724 12.3907C9.33333 12.7813 9.33333 13.4093 9.33333 14.6667Z" stroke="white" stroke-width="2.66667" stroke-linecap="round" stroke-linejoin="round"/>
</svg>
