<svg width="28" height="28" viewBox="0 0 28 28" fill="none" xmlns="http://www.w3.org/2000/svg">
<path d="M22.0262 7.87921V5.25001C22.0262 4.97153 22.1368 4.70446 22.3337 4.50754C22.5306 4.31063 22.7977 4.20001 23.0762 4.20001C23.3547 4.20001 23.6217 4.31063 23.8186 4.50754C24.0156 4.70446 24.1262 4.97153 24.1262 5.25001V10.15C24.1262 10.4285 24.0156 10.6956 23.8186 10.8925C23.6217 11.0894 23.3547 11.2 23.0762 11.2H17.4762C17.1977 11.2 16.9306 11.0894 16.7337 10.8925C16.5368 10.6956 16.4262 10.4285 16.4262 10.15C16.4262 9.87153 16.5368 9.60446 16.7337 9.40754C16.9306 9.21063 17.1977 9.10001 17.4762 9.10001H20.3112C18.6382 7.15401 16.247 5.95001 13.6262 5.95001C10.2676 5.95001 7.28418 7.93101 5.70918 10.9102C5.61388 11.0997 5.46852 11.2595 5.28886 11.3723C5.10919 11.4851 4.90208 11.5466 4.68998 11.55C3.93678 11.55 3.41458 10.8038 3.75198 10.1318C5.63218 6.41061 9.32118 3.85001 13.6276 3.85001C16.996 3.85001 19.9864 5.41661 22.0276 7.87921M17.5014 23.8C20.1264 23.8 21.0014 21.6062 21.0014 18.9C21.0014 16.1938 20.1264 14 17.5014 14C14.8764 14 14.0014 16.1938 14.0014 18.9C14.0014 21.6062 14.8764 23.8 17.5014 23.8ZM18.4492 21.2632C18.3769 21.3917 18.2722 21.4989 18.1454 21.574C18.0474 21.6272 17.8598 21.7 17.5014 21.7C17.1444 21.7 16.9554 21.6272 16.8588 21.574C16.7318 21.4985 16.627 21.3908 16.555 21.2618C16.3058 20.8586 16.1014 20.09 16.1014 18.9C16.1014 17.71 16.3058 16.9414 16.555 16.5382C16.627 16.4092 16.7318 16.3015 16.8588 16.226C16.9568 16.1728 17.1444 16.1 17.5028 16.1C17.8598 16.1 18.0488 16.1728 18.1454 16.226C18.2723 16.3015 18.3771 16.4092 18.4492 16.5382C18.6984 16.9414 18.9014 17.71 18.9014 18.9C18.9014 20.09 18.6984 20.8586 18.4492 21.2632ZM11.55 15.05C11.5501 14.8492 11.4926 14.6525 11.3844 14.4833C11.2761 14.3141 11.1216 14.1796 10.9391 14.0956C10.7567 14.0116 10.554 13.9817 10.355 14.0094C10.1561 14.0371 9.9693 14.1213 9.81678 14.252L7.36678 16.352C7.15514 16.5334 7.02422 16.7914 7.00282 17.0693C6.98142 17.3472 7.0713 17.6223 7.25268 17.8339C7.43407 18.0455 7.69209 18.1765 7.97 18.1979C8.24791 18.2193 8.52294 18.1294 8.73458 17.948L9.44998 17.332V22.75C9.44998 23.0285 9.56061 23.2956 9.75752 23.4925C9.95443 23.6894 10.2215 23.8 10.5 23.8C10.7785 23.8 11.0455 23.6894 11.2424 23.4925C11.4394 23.2956 11.55 23.0285 11.55 22.75V15.05Z" fill="#656565" fill-opacity="0.5"/>
</svg>
