<svg width="28" height="28" viewBox="0 0 28 28" fill="none" xmlns="http://www.w3.org/2000/svg">
<path d="M5.6 7.87921V5.25001C5.6 4.97153 5.48938 4.70446 5.29246 4.50754C5.09555 4.31063 4.82848 4.20001 4.55 4.20001C4.27152 4.20001 4.00445 4.31063 3.80754 4.50754C3.61062 4.70446 3.5 4.97153 3.5 5.25001V10.15C3.5 10.7296 3.9704 11.2 4.55 11.2H10.15C10.4285 11.2 10.6955 11.0894 10.8925 10.8925C11.0894 10.6956 11.2 10.4285 11.2 10.15C11.2 9.87153 11.0894 9.60446 10.8925 9.40754C10.6955 9.21063 10.4285 9.10001 10.15 9.10001H7.3164C8.988 7.15401 11.3806 5.95001 14 5.95001C17.36 5.95001 20.342 7.93101 21.917 10.9102C22.1186 11.2924 22.505 11.55 22.9376 11.55C23.6894 11.55 24.2116 10.8038 23.8728 10.1318C21.9968 6.41061 18.3078 3.85001 14 3.85001C10.6316 3.85001 7.6412 5.41661 5.6 7.87921ZM11.55 15.05C11.5501 14.8492 11.4926 14.6525 11.3844 14.4833C11.2761 14.3141 11.1216 14.1796 10.9391 14.0956C10.7567 14.0116 10.554 13.9817 10.3551 14.0094C10.1561 14.0371 9.96932 14.1213 9.8168 14.252L7.3668 16.352C7.26201 16.4417 7.17591 16.5512 7.11342 16.6742C7.05094 16.7972 7.01329 16.9313 7.00263 17.0688C6.99197 17.2064 7.00851 17.3447 7.05129 17.4758C7.09408 17.607 7.16228 17.7284 7.252 17.8332C7.4332 18.0448 7.69104 18.1758 7.96882 18.1974C8.10637 18.208 8.24466 18.1915 8.37581 18.1487C8.50697 18.1059 8.62841 18.0377 8.7332 17.948L9.45 17.332V22.75C9.45 23.0285 9.56062 23.2956 9.75754 23.4925C9.95445 23.6894 10.2215 23.8 10.5 23.8C10.7785 23.8 11.0455 23.6894 11.2425 23.4925C11.4394 23.2956 11.55 23.0285 11.55 22.75V15.05ZM21 18.9C21 21.6062 20.125 23.8 17.5 23.8C14.875 23.8 14 21.6062 14 18.9C14 16.1938 14.875 14 17.5 14C20.125 14 21 16.1938 21 18.9ZM18.9 18.9C18.9 17.71 18.697 16.9414 18.4464 16.5382C18.3743 16.4092 18.2696 16.3015 18.1426 16.226C18.046 16.1728 17.857 16.1 17.5 16.1C17.143 16.1 16.954 16.1728 16.856 16.226C16.7296 16.3017 16.6253 16.4094 16.5536 16.5382C16.303 16.9414 16.1 17.71 16.1 18.9C16.1 20.09 16.303 20.8586 16.5536 21.2632C16.6258 21.3917 16.7306 21.4989 16.8574 21.574C16.954 21.6272 17.143 21.7 17.5 21.7C17.857 21.7 18.046 21.6272 18.144 21.574C18.2704 21.4983 18.3747 21.3906 18.4464 21.2618C18.697 20.8586 18.9 20.09 18.9 18.9Z" fill="#656565" fill-opacity="0.5"/>
</svg>
