<svg width="24" height="24" viewBox="0 0 24 24" fill="none" xmlns="http://www.w3.org/2000/svg">
<path d="M5 6.50001V17.5H1V6.50001H5ZM7 18.21L15 22.71V1.29001L7 5.79001V18.21ZM21.581 7.78001L20.979 6.98101L19.383 8.18701L19.985 8.98501C20.6409 9.85339 20.9957 10.9121 20.9953 12.0003C20.9949 13.0886 20.6395 14.1471 19.983 15.015L19.38 15.812L20.975 17.018L21.578 16.221C22.4972 15.0059 22.9948 13.5241 22.9953 12.0005C22.9959 10.4769 22.4993 8.99476 21.581 7.77901" fill="#1976D3"/>
<path d="M18.789 9.889L18.186 9.091L16.59 10.296L17.193 11.094C17.3899 11.3545 17.4964 11.672 17.4964 11.9985C17.4964 12.325 17.3899 12.6426 17.193 12.903L16.589 13.7L18.184 14.907L18.787 14.109C19.2464 13.5016 19.4952 12.7609 19.4955 11.9993C19.4959 11.2378 19.2478 10.4968 18.789 9.889Z" fill="#1976D3"/>
</svg>
