<svg width="30" height="30" viewBox="0 0 30 30" fill="none" xmlns="http://www.w3.org/2000/svg">
<path d="M8.17875 6.85375C9.84293 5.45595 11.8974 4.60485 14.0625 4.41625V6.5625C14.0625 6.81114 14.1613 7.0496 14.3371 7.22541C14.5129 7.40123 14.7514 7.5 15 7.5C15.2486 7.5 15.4871 7.40123 15.6629 7.22541C15.8387 7.0496 15.9375 6.81114 15.9375 6.5625V4.41625C18.4754 4.64115 20.848 5.77055 22.6228 7.59858C24.3976 9.42661 25.4564 11.8315 25.6063 14.375H23.4375C23.1889 14.375 22.9504 14.4738 22.7746 14.6496C22.5988 14.8254 22.5 15.0639 22.5 15.3125C22.5 15.5611 22.5988 15.7996 22.7746 15.9754C22.9504 16.1512 23.1889 16.25 23.4375 16.25H25.555C25.23 19.14 23.7763 21.56 21.595 23.335C21.4021 23.4921 21.2794 23.7195 21.2541 23.967C21.2288 24.2146 21.3029 24.4621 21.46 24.655C21.6171 24.8479 21.8445 24.9706 22.092 24.9959C22.3396 25.0212 22.5871 24.9471 22.78 24.79C25.5625 22.5238 27.3675 19.2975 27.4925 15.4338C27.4992 15.369 27.5009 15.3038 27.4975 15.2388L27.5 15C27.5 8.09625 21.9038 2.5 15 2.5C8.09625 2.5 2.5 8.09625 2.5 15C2.5 19.065 4.40375 22.4425 7.2125 24.7825C7.40422 24.9346 7.64784 25.0057 7.89129 24.9807C8.13475 24.9556 8.35874 24.8363 8.51542 24.6483C8.6721 24.4603 8.74905 24.2184 8.72982 23.9744C8.71059 23.7304 8.5967 23.5036 8.4125 23.3425C6.275 21.56 4.78375 19.1337 4.4475 16.25H6.5625C6.81114 16.25 7.0496 16.1512 7.22541 15.9754C7.40123 15.7996 7.5 15.5611 7.5 15.3125C7.5 15.0639 7.40123 14.8254 7.22541 14.6496C7.0496 14.4738 6.81114 14.375 6.5625 14.375H4.3925C4.53 12.0225 5.43125 9.875 6.85375 8.17875L8.4 9.725C8.57772 9.8906 8.81278 9.98075 9.05565 9.97647C9.29853 9.97218 9.53026 9.87379 9.70203 9.70203C9.87379 9.53026 9.97218 9.29853 9.97647 9.05565C9.98075 8.81278 9.8906 8.57772 9.725 8.4L8.17875 6.85375ZM20.95 8.2925C20.8047 8.18063 20.6257 8.12153 20.4423 8.12494C20.259 8.12835 20.0823 8.19405 19.9413 8.31125L19.6688 8.54C18.6859 9.36535 17.7064 10.1945 16.73 11.0275C15.91 11.7275 15.0713 12.4525 14.4013 13.0438C14.1112 13.2987 13.8241 13.5571 13.54 13.8188C13.3546 13.9848 13.1793 14.1618 13.015 14.3488C12.8211 14.5874 12.6772 14.8626 12.5917 15.1579C12.5062 15.4533 12.4808 15.7628 12.5172 16.0682C12.5536 16.3735 12.6509 16.6684 12.8034 16.9354C12.9559 17.2024 13.1605 17.4361 13.405 17.6225C13.903 18.0065 14.531 18.1813 15.1557 18.1099C15.7804 18.0384 16.3528 17.7264 16.7513 17.24C16.8613 17.105 17.0075 16.87 17.1575 16.6187C17.3175 16.35 17.5138 16.0062 17.7313 15.6213C18.165 14.8462 18.6913 13.8813 19.2 12.94C19.8042 11.8187 20.4038 10.695 20.9988 9.56875L21.1625 9.2575C21.2474 9.09761 21.2726 8.91272 21.2337 8.73592C21.1948 8.55912 21.0942 8.40194 20.95 8.2925Z" fill="#005BBF"/>
</svg>
